<?xml version="1.0" encoding="utf-8"?>
<svg version="1.2" baseProfile="tiny" id="Layer_1" xmlns="http://www.w3.org/2000/svg" xmlns:xlink="http://www.w3.org/1999/xlink"
	 x="0px" y="0px" width="294.01947px" height="109.56229px" viewBox="5.88582 3.5 294.01947 109.56229" xml:space="preserve">
<g>
	<g id="g12886_6_" transform="translate(283,-142.5)">
		<g id="g12888_6_" transform="matrix(1.25,0,0,-1.25,209.89479,117.51707)">
			<g id="path12890_6_">
				<path fill="#FFFFFF" d="M-216.78366-96.23322c-11.45233,0-20.76953,9.31719-20.76953,20.76953
					c0,11.44453,9.3172,20.75547,20.76953,20.75547c11.45235,0,20.77032-9.31094,20.77032-20.75547
					C-196.01334-86.91603-205.33131-96.23322-216.78366-96.23322z M-216.78366-62.60353
					c-7.09921,0-12.87421-5.76875-12.87421-12.86016c0-7.09922,5.77499-12.87421,12.87421-12.87421
					c7.09923,0,12.875,5.77499,12.875,12.87421C-203.90866-68.37228-209.68443-62.60353-216.78366-62.60353z"/>
			</g>
		</g>
		<g id="g12892_6_" transform="matrix(1.25,0,0,-1.25,254.43834,113.75732)">
			<g id="path12894_6_">
				<path fill="#FFFFFF" d="M-205.85989-99.23711c-11.44922,0-20.76329,9.31406-20.76329,20.7625
					c0,11.44883,9.31407,20.76328,20.76329,20.76328c5.55389,0,10.76796-2.1625,14.68202-6.08945
					c1.53906-1.54414,1.53516-4.04336-0.00937-5.58242c-1.54454-1.53984-4.04297-1.53438-5.58281,0.00859
					c-2.42188,2.43008-5.65001,3.76797-9.08984,3.76797c-7.09532,0-12.86798-5.77266-12.86798-12.86797
					s5.77266-12.86719,12.86798-12.86719c3.43983,0,6.66797,1.33828,9.08984,3.76797
					c1.53906,1.54375,4.03906,1.54844,5.58281,0.00938s1.54843-4.03828,0.00937-5.58281
					C-195.09193-97.07462-200.306-99.23711-205.85989-99.23711z"/>
			</g>
		</g>
		<g id="g12896_6_" transform="matrix(1.25,0,0,-1.25,187.40572,117.51707)">
			<g id="path12898_6_">
				<path fill="#FFFFFF" d="M-228.29942-96.23322c-2.18047,0-3.94766,1.76719-3.94766,3.94765v54.08164
					c0,2.18008,1.7672,3.94766,3.94766,3.94766s3.94765-1.76758,3.94765-3.94766v-54.08164
					C-224.35178-94.46603-226.11896-96.23322-228.29942-96.23322z"/>
			</g>
		</g>
	</g>
	<g>
		<g id="g12906_6_" transform="matrix(1.25,0,0,-1.25,-670.41741,104.70133)">
			<g id="path12908_6_">
				<path fill="#FFFFFF" d="M653.72705,7.52982c-11.44806,0-20.76172,9.31406-20.76172,20.76328s9.31366,20.76367,20.76172,20.76367
					c11.44922,0,20.76331-9.31445,20.76331-20.76367S665.17627,7.52982,653.72705,7.52982z M653.72705,41.16146
					c-7.09454,0-12.86639-5.77227-12.86639-12.86836c0-7.09531,5.77185-12.86797,12.86639-12.86797
					c7.09534,0,12.86798,5.77266,12.86798,12.86797C666.59503,35.38919,660.82239,41.16146,653.72705,41.16146z"/>
			</g>
		</g>
		<g id="g12910_12_" transform="matrix(1.25,0,0,-1.25,-705.43703,117.5427)">
			<g id="path12912_12_">
				<path fill="#FFFFFF" d="M652.61029,17.7701c-2.18005,0-3.94763,1.76719-3.94763,3.94766v33.66445
					c0,2.18008,1.76758,3.94765,3.94763,3.94765c2.18011,0,3.94769-1.76758,3.94769-3.94765V21.71776
					C656.55798,19.53729,654.79041,17.7701,652.61029,17.7701z"/>
			</g>
		</g>
		<g id="g12910_11_" transform="matrix(1.25,0,0,-1.25,-705.43703,117.5427)">
			<g id="path12912_11_">
				<path fill="#FFFFFF" d="M698.55835,17.7701c-2.18048,0-3.94763,1.76719-3.94763,3.94766v33.66445
					c0,2.18008,1.76715,3.94765,3.94763,3.94765s3.94763-1.76758,3.94763-3.94765V21.71776
					C702.50598,19.53729,700.73883,17.7701,698.55835,17.7701z"/>
			</g>
		</g>
		<g>
			<path fill="#FFFFFF" d="M110.35565,27.68555c-2.7251,0-4.93896-2.20947-4.93896-4.93457s2.2041-4.93457,4.9292-4.93457h0.00977
				c2.72559,0,4.93457,2.20947,4.93457,4.93457S113.08124,27.68555,110.35565,27.68555z"/>
		</g>
	</g>
	<g>
		<path fill="#FFFFFF" d="M45.32825,3.5C23.54472,3.5,5.88582,21.1589,5.88582,42.94242
			c0,8.67832,3.39012,18.23854,8.13211,27.44594L26.6925,57.54422c1.45967-1.4594,2.2648-3.53242,1.88899-5.56131
			c-0.52294-2.81074,0.29985-5.82424,2.4689-7.99489l18.15909-16.19521l1.35054,1.35054l-13.1234,13.12313
			c-0.78641,0.78855-0.78641,2.06392,0,2.85033c0.78695,0.78694,2.06392,0.78694,2.85033,0l13.52784-12.71843l1.65226,1.65199
			L42.61942,47.44957c-0.78668,0.78828-0.78668,2.06098,0,2.84792c0.78694,0.78641,2.06366,0.78641,2.8506,0l13.12313-13.12099
			l1.41741,1.415L43.7458,56.68613c-2.16904,2.17065-5.17879,2.9921-7.98954,2.46917
			c-2.03022-0.37769-4.10431,0.42691-5.56398,1.88658L16.47827,74.93028c11.68353,20.52688,28.84998,38.13201,28.84998,38.13201
			s39.44242-40.32139,39.44242-70.11987C84.77068,21.1589,67.11178,3.5,45.32825,3.5z M45.32825,75.81111
			c-6.7139,0-12.95087-2.02219-18.15375-5.47758l4.2343-4.28834c4.06846,2.45686,8.82008,3.89647,13.91944,3.89647
			c14.91154,0,26.99924-12.08823,26.99924-26.99924c0-14.91154-12.0877-26.99924-26.99924-26.99924
			s-26.99924,12.0877-26.99924,26.99924c0,4.83214,1.28527,9.35746,3.50888,13.28122l-4.24661,4.30305
			c-3.2331-5.08892-5.13172-11.10896-5.13172-17.58427c0-18.15321,14.71575-32.86869,32.86869-32.86869
			s32.86869,14.71548,32.86869,32.86869C78.19694,61.0951,63.48119,75.81111,45.32825,75.81111z"/>
	</g>
</g>
</svg>
